<svg width="1261" height="281" xmlns="http://www.w3.org/2000/svg" xmlns:xlink="http://www.w3.org/1999/xlink" xml:space="preserve" overflow="hidden"><g transform="translate(-1364 -1035)"><rect x="1551.5" y="1162.5" width="144" height="69.9998" stroke="#000000" stroke-width="6.875" stroke-miterlimit="8" fill="#FFFFFF"/><text font-family="Calibri,Calibri_MSFontService,sans-serif" font-weight="400" font-size="55" transform="matrix(1 0 0 1 1609.43 1215)">1</text><rect x="1683.5" y="1162.5" width="144" height="69.9998" stroke="#000000" stroke-width="6.875" stroke-miterlimit="8" fill="#FFFFFF"/><text font-family="Calibri,Calibri_MSFontService,sans-serif" font-weight="400" font-size="55" transform="matrix(1 0 0 1 1741.44 1215)">2</text><rect x="1972.5" y="1162.5" width="144" height="69.9998" stroke="#000000" stroke-width="6.875" stroke-miterlimit="8" fill="#FFFFFF"/><text font-family="Calibri,Calibri_MSFontService,sans-serif" font-weight="400" font-size="55" transform="matrix(1 0 0 1 2030.46 1215)">4</text><rect x="1827.5" y="1162.5" width="144" height="69.9998" stroke="#000000" stroke-width="6.875" stroke-miterlimit="8" fill="#FFFFFF"/><text font-family="Calibri,Calibri_MSFontService,sans-serif" font-weight="400" font-size="55" transform="matrix(1 0 0 1 1885.44 1215)">3</text><rect x="1546" y="1243" width="144" height="57.0001" fill="#FFFFFF"/><text font-family="Calibri,Calibri_MSFontService,sans-serif" font-weight="400" font-size="37" transform="matrix(1 0 0 1 1588.47 1284)">a[0]</text><rect x="1683" y="1243" width="144" height="57.0001" fill="#FFFFFF"/><text font-family="Calibri,Calibri_MSFontService,sans-serif" font-weight="400" font-size="37" transform="matrix(1 0 0 1 1725.97 1284)">a[1]</text><rect x="1827" y="1243" width="144" height="57.0001" fill="#FFFFFF"/><text font-family="Calibri,Calibri_MSFontService,sans-serif" font-weight="400" font-size="37" transform="matrix(1 0 0 1 1869.97 1284)">a[2]</text><rect x="1364" y="1166" width="144" height="58.0001" fill="#FFFFFF"/><text font-family="Calibri,Calibri_MSFontService,sans-serif" font-weight="400" font-size="37" transform="matrix(1 0 0 1 1426.7 1207)">a  </text><path d="M1466 1195.85 1498.28 1195.85 1498.28 1198.15 1466 1198.15ZM1493.7 1183.25 1521.2 1197 1493.7 1210.75Z"/><rect x="1975" y="1243" width="144" height="57.0001" fill="#FFFFFF"/><text font-family="Calibri,Calibri_MSFontService,sans-serif" font-weight="400" font-size="37" transform="matrix(1 0 0 1 2017.23 1283)">a[3]</text><rect x="2163" y="1041" width="462" height="71.0001" fill="#FFFFFF"/><text font-family="Calibri,Calibri_MSFontService,sans-serif" font-weight="400" font-size="46" transform="matrix(1 0 0 1 2245.34 1092)">Да ли је </text><text font-family="Calibri,Calibri_MSFontService,sans-serif" font-weight="400" font-size="46" transform="matrix(1 0 0 1 2409.77 1092)">a[1]</text><text font-family="Calibri,Calibri_MSFontService,sans-serif" font-weight="400" font-size="46" transform="matrix(1 0 0 1 2493.98 1092)">= </text><text font-family="Calibri,Calibri_MSFontService,sans-serif" font-weight="400" font-size="46" transform="matrix(1 0 0 1 2527.21 1092)">t</text><path d="M0-1.14583 458.877-1.14583 458.97 49.7063 456.678 49.7105 456.587 0.00209534 457.733 1.14583 0 1.14583ZM471.48 44.8533 458.278 72.6206 443.986 45.3986Z" fill="#4472C4" transform="matrix(-1 1.22465e-16 1.22465e-16 1 2213.28 1075)"/></g></svg>