<svg width="2068" height="251" xmlns="http://www.w3.org/2000/svg" xmlns:xlink="http://www.w3.org/1999/xlink" xml:space="preserve" overflow="hidden"><defs><clipPath id="clip0"><rect x="1193" y="1173" width="2068" height="251"/></clipPath></defs><g clip-path="url(#clip0)" transform="translate(-1193 -1173)"><rect x="1381.5" y="1270.5" width="144" height="70.0001" stroke="#000000" stroke-width="6.875" stroke-miterlimit="8" fill="#FFFFFF"/><text font-family="Calibri,Calibri_MSFontService,sans-serif" font-weight="400" font-size="55" transform="matrix(1 0 0 1 1438.72 1323)">2</text><rect x="1555.5" y="1268.5" width="144" height="70.0001" stroke="#000000" stroke-width="6.875" stroke-miterlimit="8" fill="#FFFFFF"/><text font-family="Calibri,Calibri_MSFontService,sans-serif" font-weight="400" font-size="55" transform="matrix(1 0 0 1 1613.06 1321)">4</text><rect x="1902.5" y="1268.5" width="144" height="70.0001" stroke="#000000" stroke-width="6.875" stroke-miterlimit="8" fill="#FFFFFF"/><text font-family="Calibri,Calibri_MSFontService,sans-serif" font-weight="400" font-size="55" transform="matrix(1 0 0 1 1960.4 1321)">5</text><rect x="1729.5" y="1268.5" width="144" height="70.0001" stroke="#000000" stroke-width="6.875" stroke-miterlimit="8" fill="#FFFFFF"/><text font-family="Calibri,Calibri_MSFontService,sans-serif" font-weight="400" font-size="55" transform="matrix(1 0 0 1 1786.73 1321)">1</text><rect x="1381" y="1349" width="144" height="58.0001" fill="#FFFFFF"/><text font-family="Calibri,Calibri_MSFontService,sans-serif" font-weight="400" font-size="37" transform="matrix(1 0 0 1 1423.25 1390)">a[0]</text><rect x="1555" y="1350" width="144" height="58.0001" fill="#FFFFFF"/><text font-family="Calibri,Calibri_MSFontService,sans-serif" font-weight="400" font-size="37" transform="matrix(1 0 0 1 1597.59 1391)">a[1]</text><rect x="1721" y="1349" width="144" height="58.0001" fill="#FFFFFF"/><text font-family="Calibri,Calibri_MSFontService,sans-serif" font-weight="400" font-size="37" transform="matrix(1 0 0 1 1763.25 1390)">a[2]</text><rect x="1193" y="1274" width="144" height="58.0001" fill="#FFFFFF"/><text font-family="Calibri,Calibri_MSFontService,sans-serif" font-weight="400" font-size="37" transform="matrix(1 0 0 1 1255.99 1315)">a  </text><path d="M1295 1303.85 1327.28 1303.85 1327.28 1306.15 1295 1306.15ZM1322.7 1291.25 1350.2 1305 1322.7 1318.75Z"/><rect x="1902" y="1349" width="144" height="58.0001" fill="#FFFFFF"/><text font-family="Calibri,Calibri_MSFontService,sans-serif" font-weight="400" font-size="37" transform="matrix(1 0 0 1 1944.93 1390)">a[3]</text><rect x="2077.5" y="1268.5" width="144" height="70.0001" stroke="#000000" stroke-width="6.875" stroke-miterlimit="8" fill="#FFFFFF"/><text font-family="Calibri,Calibri_MSFontService,sans-serif" font-weight="400" font-size="55" transform="matrix(1 0 0 1 2135.06 1321)">3</text><rect x="2076" y="1349" width="144" height="58.0001" fill="#FFFFFF"/><text font-family="Calibri,Calibri_MSFontService,sans-serif" font-weight="400" font-size="37" transform="matrix(1 0 0 1 2118.55 1390)">a[4]</text><rect x="2417.5" y="1263.5" width="144" height="70.9998" stroke="#000000" stroke-width="6.875" stroke-miterlimit="8" fill="#FFFFFF"/><text font-family="Calibri,Calibri_MSFontService,sans-serif" font-weight="400" font-size="55" transform="matrix(1 0 0 1 2475.07 1316)">2</text><rect x="2591.5" y="1261.5" width="144" height="70.9998" stroke="#000000" stroke-width="6.875" stroke-miterlimit="8" fill="#FFFFFF"/><text font-family="Calibri,Calibri_MSFontService,sans-serif" font-weight="400" font-size="55" transform="matrix(1 0 0 1 2649.41 1314)">4</text><rect x="2939.5" y="1261.5" width="144" height="70.9998" stroke="#000000" stroke-width="6.875" stroke-miterlimit="8" fill="#FFFFFF"/><text font-family="Calibri,Calibri_MSFontService,sans-serif" font-weight="400" font-size="55" transform="matrix(1 0 0 1 2996.75 1314)">3</text><rect x="2765.5" y="1261.5" width="144" height="70.9998" stroke="#000000" stroke-width="6.875" stroke-miterlimit="8" fill="#FFFFFF"/><text font-family="Calibri,Calibri_MSFontService,sans-serif" font-weight="400" font-size="55" transform="matrix(1 0 0 1 2823.08 1314)">1</text><rect x="2417" y="1343" width="144" height="57.0001" fill="#FFFFFF"/><text font-family="Calibri,Calibri_MSFontService,sans-serif" font-weight="400" font-size="37" transform="matrix(1 0 0 1 2459.6 1383)">a[0]</text><rect x="2591" y="1344" width="144" height="57.0001" fill="#FFFFFF"/><text font-family="Calibri,Calibri_MSFontService,sans-serif" font-weight="400" font-size="37" transform="matrix(1 0 0 1 2633.94 1385)">a[1]</text><rect x="2757" y="1343" width="144" height="57.0001" fill="#FFFFFF"/><text font-family="Calibri,Calibri_MSFontService,sans-serif" font-weight="400" font-size="37" transform="matrix(1 0 0 1 2799.6 1383)">a[2]</text><rect x="2229" y="1268" width="144" height="57.0001" fill="#FFFFFF"/><text font-family="Calibri,Calibri_MSFontService,sans-serif" font-weight="400" font-size="37" transform="matrix(1 0 0 1 2292.34 1308)">a  </text><path d="M2332 1296.85 2364.28 1296.85 2364.28 1299.15 2332 1299.15ZM2359.7 1284.25 2387.2 1298 2359.7 1311.75Z"/><rect x="2939" y="1343" width="144" height="57.0001" fill="#FFFFFF"/><text font-family="Calibri,Calibri_MSFontService,sans-serif" font-weight="400" font-size="37" transform="matrix(1 0 0 1 2981.28 1383)">a[3]</text><rect x="3113.5" y="1261.5" width="144" height="70.9998" stroke="#000000" stroke-width="6.875" stroke-miterlimit="8" fill="#FFFFFF"/><text font-family="Calibri,Calibri_MSFontService,sans-serif" font-weight="400" font-size="55" transform="matrix(1 0 0 1 3171.41 1314)">5</text><rect x="3112" y="1343" width="144" height="57.0001" fill="#FFFFFF"/><text font-family="Calibri,Calibri_MSFontService,sans-serif" font-weight="400" font-size="37" transform="matrix(1 0 0 1 3154.9 1383)">a[4]</text><path d="M1971.85 1233.67 1971.85 1172.94 2148.81 1172.94 2148.81 1229.08 2146.51 1229.08 2146.51 1174.08 2147.66 1175.23 1973 1175.23 1974.15 1174.08 1974.15 1233.67ZM1986.75 1229.08 1973 1256.58 1959.25 1229.08ZM2161.41 1224.5 2147.66 1252 2133.91 1224.5Z" fill="#4472C4"/></g></svg>