<svg width="2068" height="265" xmlns="http://www.w3.org/2000/svg" xmlns:xlink="http://www.w3.org/1999/xlink" xml:space="preserve" overflow="hidden"><defs><clipPath id="clip0"><rect x="1193" y="1169" width="2068" height="265"/></clipPath></defs><g clip-path="url(#clip0)" transform="translate(-1193 -1169)"><rect x="1381.5" y="1281.5" width="144" height="70.0001" stroke="#000000" stroke-width="6.875" stroke-miterlimit="8" fill="#FFFFFF"/><text font-family="Calibri,Calibri_MSFontService,sans-serif" font-weight="400" font-size="55" transform="matrix(1 0 0 1 1438.72 1334)">2</text><rect x="1555.5" y="1278.5" width="144" height="71.0001" stroke="#000000" stroke-width="6.875" stroke-miterlimit="8" fill="#FFFFFF"/><text font-family="Calibri,Calibri_MSFontService,sans-serif" font-weight="400" font-size="55" transform="matrix(1 0 0 1 1613.06 1332)">4</text><rect x="1902.5" y="1278.5" width="144" height="71.0001" stroke="#000000" stroke-width="6.875" stroke-miterlimit="8" fill="#FFFFFF"/><text font-family="Calibri,Calibri_MSFontService,sans-serif" font-weight="400" font-size="55" transform="matrix(1 0 0 1 1960.4 1332)">1</text><rect x="1729.5" y="1278.5" width="144" height="71.0001" stroke="#000000" stroke-width="6.875" stroke-miterlimit="8" fill="#FFFFFF"/><text font-family="Calibri,Calibri_MSFontService,sans-serif" font-weight="400" font-size="55" transform="matrix(1 0 0 1 1786.73 1332)">5</text><rect x="1381" y="1360" width="144" height="57.0001" fill="#FFFFFF"/><text font-family="Calibri,Calibri_MSFontService,sans-serif" font-weight="400" font-size="37" transform="matrix(1 0 0 1 1423.25 1401)">a[0]</text><rect x="1555" y="1361" width="144" height="57.0001" fill="#FFFFFF"/><text font-family="Calibri,Calibri_MSFontService,sans-serif" font-weight="400" font-size="37" transform="matrix(1 0 0 1 1597.59 1402)">a[1]</text><rect x="1721" y="1360" width="144" height="57.0001" fill="#FFFFFF"/><text font-family="Calibri,Calibri_MSFontService,sans-serif" font-weight="400" font-size="37" transform="matrix(1 0 0 1 1763.25 1401)">a[2]</text><rect x="1193" y="1285" width="144" height="57.0001" fill="#FFFFFF"/><text font-family="Calibri,Calibri_MSFontService,sans-serif" font-weight="400" font-size="37" transform="matrix(1 0 0 1 1255.99 1326)">a  </text><path d="M1295 1313.85 1327.28 1313.85 1327.28 1316.15 1295 1316.15ZM1322.7 1301.25 1350.2 1315 1322.7 1328.75Z"/><rect x="1902" y="1360" width="144" height="57.0001" fill="#FFFFFF"/><text font-family="Calibri,Calibri_MSFontService,sans-serif" font-weight="400" font-size="37" transform="matrix(1 0 0 1 1944.93 1401)">a[3]</text><rect x="2077.5" y="1278.5" width="144" height="71.0001" stroke="#000000" stroke-width="6.875" stroke-miterlimit="8" fill="#FFFFFF"/><text font-family="Calibri,Calibri_MSFontService,sans-serif" font-weight="400" font-size="55" transform="matrix(1 0 0 1 2135.06 1332)">3</text><rect x="2076" y="1360" width="144" height="57.0001" fill="#FFFFFF"/><text font-family="Calibri,Calibri_MSFontService,sans-serif" font-weight="400" font-size="37" transform="matrix(1 0 0 1 2118.55 1401)">a[4]</text><rect x="2417.5" y="1274.5" width="144" height="69.9998" stroke="#000000" stroke-width="6.875" stroke-miterlimit="8" fill="#FFFFFF"/><text font-family="Calibri,Calibri_MSFontService,sans-serif" font-weight="400" font-size="55" transform="matrix(1 0 0 1 2475.07 1327)">2</text><rect x="2591.5" y="1272.5" width="144" height="69.9998" stroke="#000000" stroke-width="6.875" stroke-miterlimit="8" fill="#FFFFFF"/><text font-family="Calibri,Calibri_MSFontService,sans-serif" font-weight="400" font-size="55" transform="matrix(1 0 0 1 2649.41 1325)">4</text><rect x="2939.5" y="1272.5" width="144" height="69.9998" stroke="#000000" stroke-width="6.875" stroke-miterlimit="8" fill="#FFFFFF"/><text font-family="Calibri,Calibri_MSFontService,sans-serif" font-weight="400" font-size="55" transform="matrix(1 0 0 1 2996.75 1325)">5</text><rect x="2765.5" y="1272.5" width="144" height="69.9998" stroke="#000000" stroke-width="6.875" stroke-miterlimit="8" fill="#FFFFFF"/><text font-family="Calibri,Calibri_MSFontService,sans-serif" font-weight="400" font-size="55" transform="matrix(1 0 0 1 2823.08 1325)">1</text><rect x="2417" y="1354" width="144" height="57.0001" fill="#FFFFFF"/><text font-family="Calibri,Calibri_MSFontService,sans-serif" font-weight="400" font-size="37" transform="matrix(1 0 0 1 2459.6 1394)">a[0]</text><rect x="2591" y="1355" width="144" height="57.0001" fill="#FFFFFF"/><text font-family="Calibri,Calibri_MSFontService,sans-serif" font-weight="400" font-size="37" transform="matrix(1 0 0 1 2633.94 1395)">a[1]</text><rect x="2757" y="1354" width="144" height="57.0001" fill="#FFFFFF"/><text font-family="Calibri,Calibri_MSFontService,sans-serif" font-weight="400" font-size="37" transform="matrix(1 0 0 1 2799.6 1394)">a[2]</text><rect x="2229" y="1278" width="144" height="58.0001" fill="#FFFFFF"/><text font-family="Calibri,Calibri_MSFontService,sans-serif" font-weight="400" font-size="37" transform="matrix(1 0 0 1 2292.34 1319)">a  </text><path d="M2332 1307.85 2364.28 1307.85 2364.28 1310.15 2332 1310.15ZM2359.7 1295.25 2387.2 1309 2359.7 1322.75Z"/><rect x="2939" y="1354" width="144" height="57.0001" fill="#FFFFFF"/><text font-family="Calibri,Calibri_MSFontService,sans-serif" font-weight="400" font-size="37" transform="matrix(1 0 0 1 2981.28 1394)">a[3]</text><rect x="3113.5" y="1272.5" width="144" height="69.9998" stroke="#000000" stroke-width="6.875" stroke-miterlimit="8" fill="#FFFFFF"/><text font-family="Calibri,Calibri_MSFontService,sans-serif" font-weight="400" font-size="55" transform="matrix(1 0 0 1 3171.41 1325)">3</text><rect x="3112" y="1354" width="144" height="57.0001" fill="#FFFFFF"/><text font-family="Calibri,Calibri_MSFontService,sans-serif" font-weight="400" font-size="37" transform="matrix(1 0 0 1 3154.9 1394)">a[4]</text><path d="M1799.85 1229.67 1799.85 1168.94 1976.81 1168.94 1976.81 1225.08 1974.51 1225.08 1974.51 1170.08 1975.66 1171.23 1801 1171.23 1802.15 1170.08 1802.15 1229.67ZM1814.75 1225.08 1801 1252.58 1787.25 1225.08ZM1989.41 1220.5 1975.66 1248 1961.91 1220.5Z" fill="#4472C4"/></g></svg>