<svg width="1375" height="454" xmlns="http://www.w3.org/2000/svg" xmlns:xlink="http://www.w3.org/1999/xlink" xml:space="preserve" overflow="hidden"><defs><clipPath id="clip0"><rect x="964" y="966" width="1375" height="454"/></clipPath></defs><g clip-path="url(#clip0)" transform="translate(-964 -966)"><rect x="964" y="1271" width="144" height="57.0001" fill="#FFFFFF"/><text font-family="Calibri,Calibri_MSFontService,sans-serif" font-weight="400" font-size="37" transform="matrix(1 0 0 1 1026.72 1311)">a  </text><rect x="1148.5" y="1266.5" width="144" height="71.0001" stroke="#000000" stroke-width="6.875" stroke-miterlimit="8" fill="#FFFFFF"/><text font-family="Calibri,Calibri_MSFontService,sans-serif" font-weight="400" font-size="55" transform="matrix(1 0 0 1 1205.88 1319)">5</text><rect x="1322.5" y="1264.5" width="144" height="69.9998" stroke="#000000" stroke-width="6.875" stroke-miterlimit="8" fill="#FFFFFF"/><text font-family="Calibri,Calibri_MSFontService,sans-serif" font-weight="400" font-size="55" transform="matrix(1 0 0 1 1380.22 1317)">3</text><rect x="1670.5" y="1264.5" width="144" height="69.9998" stroke="#000000" stroke-width="6.875" stroke-miterlimit="8" fill="#FFFFFF"/><text font-family="Calibri,Calibri_MSFontService,sans-serif" font-weight="400" font-size="55" transform="matrix(1 0 0 1 1727.56 1317)">4</text><rect x="1496.5" y="1264.5" width="144" height="69.9998" stroke="#000000" stroke-width="6.875" stroke-miterlimit="8" fill="#FFFFFF"/><text font-family="Calibri,Calibri_MSFontService,sans-serif" font-weight="400" font-size="55" transform="matrix(1 0 0 1 1553.89 1317)">2</text><rect x="1148" y="1346" width="144" height="56.9998" fill="#FFFFFF"/><text font-family="Calibri,Calibri_MSFontService,sans-serif" font-weight="400" font-size="37" transform="matrix(1 0 0 1 1190.41 1386)">a[0]</text><rect x="1322" y="1347" width="144" height="56.9998" fill="#FFFFFF"/><text font-family="Calibri,Calibri_MSFontService,sans-serif" font-weight="400" font-size="37" transform="matrix(1 0 0 1 1364.75 1387)">a[1]</text><rect x="1488" y="1346" width="144" height="56.9998" fill="#FFFFFF"/><text font-family="Calibri,Calibri_MSFontService,sans-serif" font-weight="400" font-size="37" transform="matrix(1 0 0 1 1530.41 1386)">a[2]</text><path d="M1062 1299.85 1094.28 1299.85 1094.28 1302.15 1062 1302.15ZM1089.7 1287.25 1117.2 1301 1089.7 1314.75Z"/><rect x="1670" y="1346" width="144" height="56.9998" fill="#FFFFFF"/><text font-family="Calibri,Calibri_MSFontService,sans-serif" font-weight="400" font-size="37" transform="matrix(1 0 0 1 1712.09 1386)">a[3]</text><rect x="1844.5" y="1264.5" width="144" height="69.9998" stroke="#000000" stroke-width="6.875" stroke-miterlimit="8" fill="#FFFFFF"/><text font-family="Calibri,Calibri_MSFontService,sans-serif" font-weight="400" font-size="55" transform="matrix(1 0 0 1 1902.22 1317)">6</text><rect x="1843" y="1346" width="144" height="56.9998" fill="#FFFFFF"/><text font-family="Calibri,Calibri_MSFontService,sans-serif" font-weight="400" font-size="37" transform="matrix(1 0 0 1 1885.71 1386)">a[4]</text><rect x="2028.5" y="1265.5" width="144" height="70.0001" stroke="#000000" stroke-width="6.875" stroke-miterlimit="8" fill="#FFFFFF"/><text font-family="Calibri,Calibri_MSFontService,sans-serif" font-weight="400" font-size="55" transform="matrix(1 0 0 1 2086.03 1318)">1</text><rect x="2026" y="1346" width="144" height="56.9998" fill="#FFFFFF"/><text font-family="Calibri,Calibri_MSFontService,sans-serif" font-weight="400" font-size="37" transform="matrix(1 0 0 1 2068.3 1386)">a[5]</text><text font-family="Calibri,Calibri_MSFontService,sans-serif" font-weight="400" font-size="46" transform="matrix(1 0 0 1 1195.56 1025)">i</text><text font-family="Calibri,Calibri_MSFontService,sans-serif" font-weight="400" font-size="46" transform="matrix(1 0 0 1 1216.19 1025)">= 0, mesto = 2, </text><text font-family="Calibri,Calibri_MSFontService,sans-serif" font-weight="400" font-size="46" transform="matrix(1 0 0 1 1500.35 1025)">услов </text><text font-family="Calibri,Calibri_MSFontService,sans-serif" font-weight="400" font-size="46" transform="matrix(1 0 0 1 1620.09 1025)">i</text><text font-family="Calibri,Calibri_MSFontService,sans-serif" font-weight="400" font-size="46" transform="matrix(1 0 0 1 1640.72 1025)">&lt; mesto </text><text font-family="Calibri,Calibri_MSFontService,sans-serif" font-weight="400" font-size="46" transform="matrix(1 0 0 1 1801.13 1025)">је тачан па следи</text><text font-family="Calibri,Calibri_MSFontService,sans-serif" font-weight="400" font-size="46" transform="matrix(1 0 0 1 2135.72 1025)">:</text><text font-family="Calibri,Calibri_MSFontService,sans-serif" font-weight="400" font-size="46" transform="matrix(1 0 0 1 1110.39 1100)">temp = a[0] = 1, j = </text><text font-family="Calibri,Calibri_MSFontService,sans-serif" font-weight="400" font-size="46" transform="matrix(1 0 0 1 1470.18 1100)">6</text><text font-family="Calibri,Calibri_MSFontService,sans-serif" font-weight="400" font-size="46" transform="matrix(1 0 0 1 1493.67 1100)">, </text><text font-family="Calibri,Calibri_MSFontService,sans-serif" font-weight="400" font-size="46" transform="matrix(1 0 0 1 1515.44 1100)">j &lt; </text><text font-family="Calibri,Calibri_MSFontService,sans-serif" font-weight="400" font-size="46" transform="matrix(1 0 0 1 1569.87 1100)">6</text><text font-family="Calibri,Calibri_MSFontService,sans-serif" font-weight="400" font-size="46" transform="matrix(1 0 0 1 1603.67 1100)">крај циклуса и</text><text font-family="Calibri,Calibri_MSFontService,sans-serif" font-weight="400" font-size="46" transform="matrix(1 0 0 1 1893 1100)">a</text><text font-family="Calibri,Calibri_MSFontService,sans-serif" font-weight="400" font-size="46" transform="matrix(1 0 0 1 1914.77 1100)">[</text><text font-family="Calibri,Calibri_MSFontService,sans-serif" font-weight="400" font-size="46" transform="matrix(1 0 0 1 1929.09 1100)">0</text><text font-family="Calibri,Calibri_MSFontService,sans-serif" font-weight="400" font-size="46" transform="matrix(1 0 0 1 1952.58 1100)">] </text><text font-family="Calibri,Calibri_MSFontService,sans-serif" font-weight="400" font-size="46" transform="matrix(1 0 0 1 1977.22 1100)">= temp </text><text font-family="Calibri,Calibri_MSFontService,sans-serif" font-weight="400" font-size="46" transform="matrix(1 0 0 1 2119.87 1100)">= </text><text font-family="Calibri,Calibri_MSFontService,sans-serif" font-weight="400" font-size="46" transform="matrix(1 0 0 1 2153.1 1100)">a[3]</text></g></svg>