<svg width="2068" height="252" xmlns="http://www.w3.org/2000/svg" xmlns:xlink="http://www.w3.org/1999/xlink" xml:space="preserve" overflow="hidden"><defs><clipPath id="clip0"><rect x="1168" y="1172" width="2068" height="252"/></clipPath></defs><g clip-path="url(#clip0)" transform="translate(-1168 -1172)"><rect x="1356.5" y="1270.5" width="144" height="70.0001" stroke="#000000" stroke-width="6.875" stroke-miterlimit="8" fill="#FFFFFF"/><text font-family="Calibri,Calibri_MSFontService,sans-serif" font-weight="400" font-size="55" transform="matrix(1 0 0 1 1413.56 1323)">2</text><rect x="1530.5" y="1268.5" width="144" height="70.0001" stroke="#000000" stroke-width="6.875" stroke-miterlimit="8" fill="#FFFFFF"/><text font-family="Calibri,Calibri_MSFontService,sans-serif" font-weight="400" font-size="55" transform="matrix(1 0 0 1 1587.9 1321)">1</text><rect x="1877.5" y="1268.5" width="144" height="70.0001" stroke="#000000" stroke-width="6.875" stroke-miterlimit="8" fill="#FFFFFF"/><text font-family="Calibri,Calibri_MSFontService,sans-serif" font-weight="400" font-size="55" transform="matrix(1 0 0 1 1935.24 1321)">4</text><rect x="1704.5" y="1268.5" width="144" height="70.0001" stroke="#000000" stroke-width="6.875" stroke-miterlimit="8" fill="#FFFFFF"/><text font-family="Calibri,Calibri_MSFontService,sans-serif" font-weight="400" font-size="55" transform="matrix(1 0 0 1 1761.57 1321)">3</text><rect x="1356" y="1349" width="144" height="58.0001" fill="#FFFFFF"/><text font-family="Calibri,Calibri_MSFontService,sans-serif" font-weight="400" font-size="37" transform="matrix(1 0 0 1 1398.09 1390)">a[0]</text><rect x="1530" y="1350" width="144" height="58.0001" fill="#FFFFFF"/><text font-family="Calibri,Calibri_MSFontService,sans-serif" font-weight="400" font-size="37" transform="matrix(1 0 0 1 1572.43 1391)">a[1]</text><rect x="1696" y="1349" width="144" height="58.0001" fill="#FFFFFF"/><text font-family="Calibri,Calibri_MSFontService,sans-serif" font-weight="400" font-size="37" transform="matrix(1 0 0 1 1738.09 1390)">a[2]</text><rect x="1168" y="1274" width="144" height="58.0001" fill="#FFFFFF"/><text font-family="Calibri,Calibri_MSFontService,sans-serif" font-weight="400" font-size="37" transform="matrix(1 0 0 1 1230.83 1315)">a  </text><path d="M1270 1303.85 1302.28 1303.85 1302.28 1306.15 1270 1306.15ZM1297.7 1291.25 1325.2 1305 1297.7 1318.75Z"/><rect x="1877" y="1349" width="144" height="58.0001" fill="#FFFFFF"/><text font-family="Calibri,Calibri_MSFontService,sans-serif" font-weight="400" font-size="37" transform="matrix(1 0 0 1 1919.77 1390)">a[3]</text><rect x="2052.5" y="1268.5" width="144" height="70.0001" stroke="#000000" stroke-width="6.875" stroke-miterlimit="8" fill="#FFFFFF"/><text font-family="Calibri,Calibri_MSFontService,sans-serif" font-weight="400" font-size="55" transform="matrix(1 0 0 1 2109.9 1321)">5</text><rect x="2051" y="1349" width="144" height="58.0001" fill="#FFFFFF"/><text font-family="Calibri,Calibri_MSFontService,sans-serif" font-weight="400" font-size="37" transform="matrix(1 0 0 1 2093.39 1390)">a[4]</text><rect x="2392.5" y="1263.5" width="144" height="70.9998" stroke="#000000" stroke-width="6.875" stroke-miterlimit="8" fill="#FFFFFF"/><text font-family="Calibri,Calibri_MSFontService,sans-serif" font-weight="400" font-size="55" transform="matrix(1 0 0 1 2449.91 1316)">1</text><rect x="2566.5" y="1261.5" width="144" height="70.9998" stroke="#000000" stroke-width="6.875" stroke-miterlimit="8" fill="#FFFFFF"/><text font-family="Calibri,Calibri_MSFontService,sans-serif" font-weight="400" font-size="55" transform="matrix(1 0 0 1 2624.25 1314)">2</text><rect x="2914.5" y="1261.5" width="144" height="70.9998" stroke="#000000" stroke-width="6.875" stroke-miterlimit="8" fill="#FFFFFF"/><text font-family="Calibri,Calibri_MSFontService,sans-serif" font-weight="400" font-size="55" transform="matrix(1 0 0 1 2971.59 1314)">4</text><rect x="2740.5" y="1261.5" width="144" height="70.9998" stroke="#000000" stroke-width="6.875" stroke-miterlimit="8" fill="#FFFFFF"/><text font-family="Calibri,Calibri_MSFontService,sans-serif" font-weight="400" font-size="55" transform="matrix(1 0 0 1 2797.92 1314)">3</text><rect x="2392" y="1343" width="144" height="57.0001" fill="#FFFFFF"/><text font-family="Calibri,Calibri_MSFontService,sans-serif" font-weight="400" font-size="37" transform="matrix(1 0 0 1 2434.44 1383)">a[0]</text><rect x="2566" y="1344" width="144" height="57.0001" fill="#FFFFFF"/><text font-family="Calibri,Calibri_MSFontService,sans-serif" font-weight="400" font-size="37" transform="matrix(1 0 0 1 2608.78 1385)">a[1]</text><rect x="2732" y="1343" width="144" height="57.0001" fill="#FFFFFF"/><text font-family="Calibri,Calibri_MSFontService,sans-serif" font-weight="400" font-size="37" transform="matrix(1 0 0 1 2774.44 1383)">a[2]</text><rect x="2204" y="1268" width="144" height="57.0001" fill="#FFFFFF"/><text font-family="Calibri,Calibri_MSFontService,sans-serif" font-weight="400" font-size="37" transform="matrix(1 0 0 1 2267.18 1308)">a  </text><path d="M2306 1296.85 2338.28 1296.85 2338.28 1299.15 2306 1299.15ZM2333.7 1284.25 2361.2 1298 2333.7 1311.75Z"/><rect x="2914" y="1343" width="144" height="57.0001" fill="#FFFFFF"/><text font-family="Calibri,Calibri_MSFontService,sans-serif" font-weight="400" font-size="37" transform="matrix(1 0 0 1 2956.12 1383)">a[3]</text><rect x="3088.5" y="1261.5" width="144" height="70.9998" stroke="#000000" stroke-width="6.875" stroke-miterlimit="8" fill="#FFFFFF"/><text font-family="Calibri,Calibri_MSFontService,sans-serif" font-weight="400" font-size="55" transform="matrix(1 0 0 1 3146.25 1314)">5</text><rect x="3087" y="1343" width="144" height="57.0001" fill="#FFFFFF"/><text font-family="Calibri,Calibri_MSFontService,sans-serif" font-weight="400" font-size="37" transform="matrix(1 0 0 1 3129.74 1383)">a[4]</text><path d="M1426.85 1232.67 1426.85 1171.94 1603.81 1171.94 1603.81 1228.08 1601.51 1228.08 1601.51 1173.08 1602.66 1174.23 1428 1174.23 1429.15 1173.08 1429.15 1232.67ZM1441.75 1228.08 1428 1255.58 1414.25 1228.08ZM1616.41 1223.5 1602.66 1251 1588.91 1223.5Z" fill="#4472C4"/></g></svg>