<svg width="1212" height="170" xmlns="http://www.w3.org/2000/svg" xmlns:xlink="http://www.w3.org/1999/xlink" xml:space="preserve" overflow="hidden"><g transform="translate(-1596 -1358)"><rect x="1596" y="1379" width="144" height="56.9998" fill="#FFFFFF"/><text font-family="Calibri,Calibri_MSFontService,sans-serif" font-weight="400" font-size="37" transform="matrix(1 0 0 1 1658.89 1420)">a  </text><rect x="1780.5" y="1374.5" width="144" height="70.9998" stroke="#000000" stroke-width="6.875" stroke-miterlimit="8" fill="#FFFFFF"/><text font-family="Calibri,Calibri_MSFontService,sans-serif" font-weight="400" font-size="55" transform="matrix(1 0 0 1 1838.05 1428)">3</text><rect x="1954.5" y="1372.5" width="144" height="70.9998" stroke="#000000" stroke-width="6.875" stroke-miterlimit="8" fill="#FFFFFF"/><text font-family="Calibri,Calibri_MSFontService,sans-serif" font-weight="400" font-size="55" transform="matrix(1 0 0 1 2012.39 1426)">2</text><rect x="2302.5" y="1372.5" width="144" height="70.9998" stroke="#000000" stroke-width="6.875" stroke-miterlimit="8" fill="#FFFFFF"/><text font-family="Calibri,Calibri_MSFontService,sans-serif" font-weight="400" font-size="55" transform="matrix(1 0 0 1 2359.73 1426)">6</text><rect x="2128.5" y="1372.5" width="144" height="70.9998" stroke="#000000" stroke-width="6.875" stroke-miterlimit="8" fill="#FFFFFF"/><text font-family="Calibri,Calibri_MSFontService,sans-serif" font-weight="400" font-size="55" transform="matrix(1 0 0 1 2186.06 1426)">4</text><rect x="1780" y="1454" width="144" height="57.0001" fill="#FFFFFF"/><text font-family="Calibri,Calibri_MSFontService,sans-serif" font-weight="400" font-size="37" transform="matrix(1 0 0 1 1822.58 1495)">a[0]</text><rect x="1954" y="1455" width="144" height="57.0001" fill="#FFFFFF"/><text font-family="Calibri,Calibri_MSFontService,sans-serif" font-weight="400" font-size="37" transform="matrix(1 0 0 1 1996.92 1496)">a[1]</text><rect x="2120" y="1454" width="144" height="57.0001" fill="#FFFFFF"/><text font-family="Calibri,Calibri_MSFontService,sans-serif" font-weight="400" font-size="37" transform="matrix(1 0 0 1 2162.58 1495)">a[2]</text><path d="M1695 1407.85 1727.28 1407.85 1727.28 1410.15 1695 1410.15ZM1722.7 1395.25 1750.2 1409 1722.7 1422.75Z"/><rect x="2302" y="1454" width="144" height="57.0001" fill="#FFFFFF"/><text font-family="Calibri,Calibri_MSFontService,sans-serif" font-weight="400" font-size="37" transform="matrix(1 0 0 1 2344.26 1495)">a[3]</text><rect x="2476.5" y="1372.5" width="144" height="70.9998" stroke="#000000" stroke-width="6.875" stroke-miterlimit="8" fill="#FFFFFF"/><text font-family="Calibri,Calibri_MSFontService,sans-serif" font-weight="400" font-size="55" transform="matrix(1 0 0 1 2534.39 1426)">1</text><rect x="2475" y="1454" width="144" height="57.0001" fill="#FFFFFF"/><text font-family="Calibri,Calibri_MSFontService,sans-serif" font-weight="400" font-size="37" transform="matrix(1 0 0 1 2517.88 1495)">a[4]</text><rect x="2660.5" y="1373.5" width="144" height="70.9998" stroke="#000000" stroke-width="6.875" stroke-miterlimit="8" fill="#FFFFFF"/><text font-family="Calibri,Calibri_MSFontService,sans-serif" font-weight="400" font-size="55" transform="matrix(1 0 0 1 2718.2 1426)">5</text><rect x="2658" y="1454" width="144" height="57.0001" fill="#FFFFFF"/><text font-family="Calibri,Calibri_MSFontService,sans-serif" font-weight="400" font-size="37" transform="matrix(1 0 0 1 2700.47 1495)">a[5]</text></g></svg>