<svg width="2577" height="428" xmlns="http://www.w3.org/2000/svg" xmlns:xlink="http://www.w3.org/1999/xlink" xml:space="preserve" overflow="hidden"><g transform="translate(-929 -1000)"><rect x="929" y="1272" width="144" height="58.0001" fill="#FFFFFF"/><text font-family="Calibri,Calibri_MSFontService,sans-serif" font-weight="400" font-size="37" transform="matrix(1 0 0 1 992.342 1313)">a  </text><rect x="1114.5" y="1268.5" width="144" height="70.0001" stroke="#000000" stroke-width="6.875" stroke-miterlimit="8" fill="#FFFFFF"/><text font-family="Calibri,Calibri_MSFontService,sans-serif" font-weight="400" font-size="55" transform="matrix(1 0 0 1 1171.5 1321)">1</text><rect x="1288.5" y="1266.5" width="144" height="70.0001" stroke="#000000" stroke-width="6.875" stroke-miterlimit="8" fill="#FFFFFF"/><text font-family="Calibri,Calibri_MSFontService,sans-serif" font-weight="400" font-size="55" transform="matrix(1 0 0 1 1345.85 1319)">5</text><rect x="1635.5" y="1266.5" width="144" height="70.0001" stroke="#000000" stroke-width="6.875" stroke-miterlimit="8" fill="#FFFFFF"/><text font-family="Calibri,Calibri_MSFontService,sans-serif" font-weight="400" font-size="55" transform="matrix(1 0 0 1 1693.18 1319)">2</text><rect x="1462.5" y="1266.5" width="144" height="70.0001" stroke="#000000" stroke-width="6.875" stroke-miterlimit="8" fill="#FFFFFF"/><text font-family="Calibri,Calibri_MSFontService,sans-serif" font-weight="400" font-size="55" transform="matrix(1 0 0 1 1519.52 1319)">3</text><rect x="1114" y="1347" width="144" height="57.9998" fill="#FFFFFF"/><text font-family="Calibri,Calibri_MSFontService,sans-serif" font-weight="400" font-size="37" transform="matrix(1 0 0 1 1156.03 1388)">a[0]</text><rect x="1288" y="1348" width="144" height="58.0001" fill="#FFFFFF"/><text font-family="Calibri,Calibri_MSFontService,sans-serif" font-weight="400" font-size="37" transform="matrix(1 0 0 1 1330.38 1389)">a[1]</text><rect x="1454" y="1347" width="144" height="57.9998" fill="#FFFFFF"/><text font-family="Calibri,Calibri_MSFontService,sans-serif" font-weight="400" font-size="37" transform="matrix(1 0 0 1 1496.04 1388)">a[2]</text><path d="M1028 1301.85 1060.28 1301.85 1060.28 1304.15 1028 1304.15ZM1055.7 1289.25 1083.2 1303 1055.7 1316.75Z"/><rect x="1635" y="1347" width="144" height="57.9998" fill="#FFFFFF"/><text font-family="Calibri,Calibri_MSFontService,sans-serif" font-weight="400" font-size="37" transform="matrix(1 0 0 1 1677.72 1388)">a[3]</text><rect x="1810.5" y="1266.5" width="144" height="70.0001" stroke="#000000" stroke-width="6.875" stroke-miterlimit="8" fill="#FFFFFF"/><text font-family="Calibri,Calibri_MSFontService,sans-serif" font-weight="400" font-size="55" transform="matrix(1 0 0 1 1867.84 1319)">4</text><rect x="1809" y="1347" width="144" height="57.9998" fill="#FFFFFF"/><text font-family="Calibri,Calibri_MSFontService,sans-serif" font-weight="400" font-size="37" transform="matrix(1 0 0 1 1851.33 1388)">a[4]</text><rect x="1994.5" y="1267.5" width="144" height="70.0001" stroke="#000000" stroke-width="6.875" stroke-miterlimit="8" fill="#FFFFFF"/><text font-family="Calibri,Calibri_MSFontService,sans-serif" font-weight="400" font-size="55" transform="matrix(1 0 0 1 2051.65 1320)">6</text><rect x="1991" y="1347" width="144" height="57.9998" fill="#FFFFFF"/><text font-family="Calibri,Calibri_MSFontService,sans-serif" font-weight="400" font-size="37" transform="matrix(1 0 0 1 2033.93 1388)">a[5]</text><rect x="2478.5" y="1274.5" width="144" height="70.9998" stroke="#000000" stroke-width="6.875" stroke-miterlimit="8" fill="#FFFFFF"/><rect x="2652.5" y="1272.5" width="144" height="70.9998" stroke="#000000" stroke-width="6.875" stroke-miterlimit="8" fill="#FFFFFF"/><rect x="2999.5" y="1272.5" width="144" height="70.9998" stroke="#000000" stroke-width="6.875" stroke-miterlimit="8" fill="#FFFFFF"/><text font-family="Calibri,Calibri_MSFontService,sans-serif" font-weight="400" font-size="55" transform="matrix(1 0 0 1 3057.31 1325)">3</text><rect x="2826.5" y="1272.5" width="144" height="70.9998" stroke="#000000" stroke-width="6.875" stroke-miterlimit="8" fill="#FFFFFF"/><text font-family="Calibri,Calibri_MSFontService,sans-serif" font-weight="400" font-size="55" transform="matrix(1 0 0 1 2883.64 1325)">2</text><rect x="2478" y="1354" width="144" height="57.0001" fill="#FFFFFF"/><text font-family="Calibri,Calibri_MSFontService,sans-serif" font-weight="400" font-size="37" transform="matrix(1 0 0 1 2519.3 1395)">b[0]</text><rect x="2652" y="1355" width="144" height="57.0001" fill="#FFFFFF"/><text font-family="Calibri,Calibri_MSFontService,sans-serif" font-weight="400" font-size="37" transform="matrix(1 0 0 1 2693.64 1396)">b[1]</text><rect x="2818" y="1354" width="144" height="57.0001" fill="#FFFFFF"/><text font-family="Calibri,Calibri_MSFontService,sans-serif" font-weight="400" font-size="37" transform="matrix(1 0 0 1 2859.3 1395)">b[2]</text><path d="M2392 1307.85 2424.28 1307.85 2424.28 1310.15 2392 1310.15ZM2419.7 1295.25 2447.2 1309 2419.7 1322.75Z"/><rect x="2999" y="1354" width="144" height="57.0001" fill="#FFFFFF"/><text font-family="Calibri,Calibri_MSFontService,sans-serif" font-weight="400" font-size="37" transform="matrix(1 0 0 1 3040.98 1395)">b[3]</text><rect x="3174.5" y="1272.5" width="144" height="70.9998" stroke="#000000" stroke-width="6.875" stroke-miterlimit="8" fill="#FFFFFF"/><text font-family="Calibri,Calibri_MSFontService,sans-serif" font-weight="400" font-size="55" transform="matrix(1 0 0 1 3231.97 1325)">5</text><rect x="3173" y="1354" width="144" height="57.0001" fill="#FFFFFF"/><text font-family="Calibri,Calibri_MSFontService,sans-serif" font-weight="400" font-size="37" transform="matrix(1 0 0 1 3214.6 1395)">b[4]</text><rect x="3358.5" y="1273.5" width="144" height="70.9998" stroke="#000000" stroke-width="6.875" stroke-miterlimit="8" fill="#FFFFFF"/><text font-family="Calibri,Calibri_MSFontService,sans-serif" font-weight="400" font-size="55" transform="matrix(1 0 0 1 3415.78 1326)">1</text><rect x="3356" y="1354" width="144" height="57.0001" fill="#FFFFFF"/><text font-family="Calibri,Calibri_MSFontService,sans-serif" font-weight="400" font-size="37" transform="matrix(1 0 0 1 3397.19 1395)">b[5]</text><rect x="2334" y="1279" width="55" height="57.0001" fill="#FFFFFF"/><text font-family="Calibri,Calibri_MSFontService,sans-serif" font-weight="400" font-size="37" transform="matrix(1 0 0 1 2351.55 1320)">b  </text><text font-family="Calibri,Calibri_MSFontService,sans-serif" font-weight="400" font-size="46" transform="matrix(1 0 0 1 2121.1 1059)">i</text><text font-family="Calibri,Calibri_MSFontService,sans-serif" font-weight="400" font-size="46" transform="matrix(1 0 0 1 2141.73 1059)">= </text><text font-family="Calibri,Calibri_MSFontService,sans-serif" font-weight="400" font-size="46" transform="matrix(1 0 0 1 2174.96 1059)">3</text><text font-family="Calibri,Calibri_MSFontService,sans-serif" font-weight="400" font-size="46" transform="matrix(1 0 0 1 2198.45 1059)">, </text><text font-family="Calibri,Calibri_MSFontService,sans-serif" font-weight="400" font-size="46" transform="matrix(1 0 0 1 2220.22 1059)">b</text><text font-family="Calibri,Calibri_MSFontService,sans-serif" font-weight="400" font-size="46" transform="matrix(1 0 0 1 2244.28 1059)">[</text><text font-family="Calibri,Calibri_MSFontService,sans-serif" font-weight="400" font-size="46" transform="matrix(1 0 0 1 2258.6 1059)">2</text><text font-family="Calibri,Calibri_MSFontService,sans-serif" font-weight="400" font-size="46" transform="matrix(1 0 0 1 2282.09 1059)">] </text><text font-family="Calibri,Calibri_MSFontService,sans-serif" font-weight="400" font-size="46" transform="matrix(1 0 0 1 2306.73 1059)">= a</text><text font-family="Calibri,Calibri_MSFontService,sans-serif" font-weight="400" font-size="46" transform="matrix(1 0 0 1 2361.73 1059)">[</text><text font-family="Calibri,Calibri_MSFontService,sans-serif" font-weight="400" font-size="46" transform="matrix(1 0 0 1 2376.05 1059)">3</text><text font-family="Calibri,Calibri_MSFontService,sans-serif" font-weight="400" font-size="46" transform="matrix(1 0 0 1 2399.54 1059)">] </text><text font-family="Calibri,Calibri_MSFontService,sans-serif" font-weight="400" font-size="46" transform="matrix(1 0 0 1 2424.18 1059)">= </text><text font-family="Calibri,Calibri_MSFontService,sans-serif" font-weight="400" font-size="46" transform="matrix(1 0 0 1 2457.41 1059)">2</text><path d="M0 1.14583-82.5 1.14583-81.3542 0-81.3542 1190.46-82.5 1189.31-16.4119 1189.31-16.4119 1191.6-83.6458 1191.6-83.6458-1.14583 0-1.14583ZM-20.9953 1176.71 6.50472 1190.46-20.9953 1204.21Z" fill="#4472C4" transform="matrix(1.83697e-16 1 1 -1.83697e-16 1707 1247)"/></g></svg>