<?xml version="1.0" encoding="UTF-8" standalone="no"?>
<svg
   width="2171"
   height="377"
   xml:space="preserve"
   overflow="hidden"
   version="1.1"
   id="svg121"
   sodipodi:docname="Picture8.svg"
   inkscape:version="1.2.2 (732a01da63, 2022-12-09)"
   xmlns:inkscape="http://www.inkscape.org/namespaces/inkscape"
   xmlns:sodipodi="http://sodipodi.sourceforge.net/DTD/sodipodi-0.dtd"
   xmlns="http://www.w3.org/2000/svg"
   xmlns:svg="http://www.w3.org/2000/svg"><sodipodi:namedview
     id="namedview123"
     pagecolor="#ffffff"
     bordercolor="#000000"
     borderopacity="0.25"
     inkscape:showpageshadow="2"
     inkscape:pageopacity="0.0"
     inkscape:pagecheckerboard="0"
     inkscape:deskcolor="#d1d1d1"
     showgrid="false"
     inkscape:zoom="0.56563795"
     inkscape:cx="1085.5"
     inkscape:cy="189.16694"
     inkscape:window-width="2560"
     inkscape:window-height="1369"
     inkscape:window-x="1912"
     inkscape:window-y="-8"
     inkscape:window-maximized="1"
     inkscape:current-layer="g119" /><defs
     id="defs5"><clipPath
       id="clip0"><rect
         x="1164"
         y="999"
         width="2171"
         height="377"
         id="rect2" /></clipPath></defs><g
     clip-path="url(#clip0)"
     transform="translate(-1164 -999)"
     id="g119"><rect
       x="1352.5"
       y="1222.5"
       width="144"
       height="71.0001"
       stroke="#000000"
       stroke-width="6.875"
       stroke-miterlimit="8"
       fill="#FFFFFF"
       id="rect7" /><text
       font-family="Calibri,Calibri_MSFontService,sans-serif"
       font-weight="400"
       font-size="55"
       transform="matrix(1 0 0 1 1409.5 1276)"
       id="text9">2</text><rect
       x="1526.5"
       y="1220.5"
       width="144"
       height="70.9998"
       stroke="#000000"
       stroke-width="6.875"
       stroke-miterlimit="8"
       fill="#FFFFFF"
       id="rect11" /><text
       font-family="Calibri,Calibri_MSFontService,sans-serif"
       font-weight="400"
       font-size="55"
       transform="matrix(1 0 0 1 1583.84 1274)"
       id="text13">4</text><rect
       x="1873.5"
       y="1220.5"
       width="144"
       height="70.9998"
       stroke="#000000"
       stroke-width="6.875"
       stroke-miterlimit="8"
       fill="#FFFFFF"
       id="rect15" /><text
       font-family="Calibri,Calibri_MSFontService,sans-serif"
       font-weight="400"
       font-size="55"
       transform="matrix(1 0 0 1 1931.18 1274)"
       id="text17">1</text><rect
       x="1700.5"
       y="1220.5"
       width="144"
       height="70.9998"
       stroke="#000000"
       stroke-width="6.875"
       stroke-miterlimit="8"
       fill="#FFFFFF"
       id="rect19" /><text
       font-family="Calibri,Calibri_MSFontService,sans-serif"
       font-weight="400"
       font-size="55"
       transform="matrix(1 0 0 1 1757.51 1274)"
       id="text21">5</text><rect
       x="1352"
       y="1302"
       width="144"
       height="56.9998"
       fill="#FFFFFF"
       id="rect23" /><text
       font-family="Calibri,Calibri_MSFontService,sans-serif"
       font-weight="400"
       font-size="37"
       transform="matrix(1 0 0 1 1394.03 1343)"
       id="text25">a[0]</text><rect
       x="1526"
       y="1303"
       width="144"
       height="56.9998"
       fill="#FFFFFF"
       id="rect27" /><text
       font-family="Calibri,Calibri_MSFontService,sans-serif"
       font-weight="400"
       font-size="37"
       transform="matrix(1 0 0 1 1568.38 1344)"
       id="text29">a[1]</text><rect
       x="1692"
       y="1302"
       width="144"
       height="56.9998"
       fill="#FFFFFF"
       id="rect31" /><text
       font-family="Calibri,Calibri_MSFontService,sans-serif"
       font-weight="400"
       font-size="37"
       transform="matrix(1 0 0 1 1734.03 1343)"
       id="text33">a[2]</text><rect
       x="1164"
       y="1227"
       width="144"
       height="57.0001"
       fill="#FFFFFF"
       id="rect35" /><text
       font-family="Calibri,Calibri_MSFontService,sans-serif"
       font-weight="400"
       font-size="37"
       transform="matrix(1 0 0 1 1226.77 1268)"
       id="text37">a  </text><path
       d="M1266 1255.85 1298.28 1255.85 1298.28 1258.15 1266 1258.15ZM1293.7 1243.25 1321.2 1257 1293.7 1270.75Z"
       id="path39" /><rect
       x="1873"
       y="1302"
       width="144"
       height="56.9998"
       fill="#FFFFFF"
       id="rect41" /><text
       font-family="Calibri,Calibri_MSFontService,sans-serif"
       font-weight="400"
       font-size="37"
       transform="matrix(1 0 0 1 1915.71 1343)"
       id="text43">a[3]</text><rect
       x="2048.5"
       y="1220.5"
       width="144"
       height="70.9998"
       stroke="#000000"
       stroke-width="6.875"
       stroke-miterlimit="8"
       fill="#FFFFFF"
       id="rect45" /><text
       font-family="Calibri,Calibri_MSFontService,sans-serif"
       font-weight="400"
       font-size="55"
       transform="matrix(1 0 0 1 2105.84 1274)"
       id="text47">3</text><rect
       x="2047"
       y="1302"
       width="144"
       height="56.9998"
       fill="#FFFFFF"
       id="rect49" /><text
       font-family="Calibri,Calibri_MSFontService,sans-serif"
       font-weight="400"
       font-size="37"
       transform="matrix(1 0 0 1 2089.33 1343)"
       id="text51">a[4]</text><rect
       x="2388.5"
       y="1216.5"
       width="144"
       height="70.0001"
       stroke="#000000"
       stroke-width="6.875"
       stroke-miterlimit="8"
       fill="#FFFFFF"
       id="rect53" /><text
       font-family="Calibri,Calibri_MSFontService,sans-serif"
       font-weight="400"
       font-size="55"
       transform="matrix(1 0 0 1 2445.85 1269)"
       id="text55">4</text><rect
       x="2562.5"
       y="1214.5"
       width="144"
       height="70.0001"
       stroke="#000000"
       stroke-width="6.875"
       stroke-miterlimit="8"
       fill="#FFFFFF"
       id="rect57" /><text
       font-family="Calibri,Calibri_MSFontService,sans-serif"
       font-weight="400"
       font-size="55"
       transform="matrix(1 0 0 1 2620.19 1267)"
       id="text59">2</text><rect
       x="2910.5"
       y="1214.5"
       width="144"
       height="70.0001"
       stroke="#000000"
       stroke-width="6.875"
       stroke-miterlimit="8"
       fill="#FFFFFF"
       id="rect61" /><text
       font-family="Calibri,Calibri_MSFontService,sans-serif"
       font-weight="400"
       font-size="55"
       transform="matrix(1 0 0 1 2967.53 1267)"
       id="text63">1</text><rect
       x="2736.5"
       y="1214.5"
       width="144"
       height="70.0001"
       stroke="#000000"
       stroke-width="6.875"
       stroke-miterlimit="8"
       fill="#FFFFFF"
       id="rect65" /><text
       font-family="Calibri,Calibri_MSFontService,sans-serif"
       font-weight="400"
       font-size="55"
       transform="matrix(1 0 0 1 2793.86 1267)"
       id="text67">5</text><rect
       x="2388"
       y="1295"
       width="144"
       height="58.0001"
       fill="#FFFFFF"
       id="rect69" /><text
       font-family="Calibri,Calibri_MSFontService,sans-serif"
       font-weight="400"
       font-size="37"
       transform="matrix(1 0 0 1 2430.38 1336)"
       id="text71">a[0]</text><rect
       x="2562"
       y="1296"
       width="144"
       height="58.0001"
       fill="#FFFFFF"
       id="rect73" /><text
       font-family="Calibri,Calibri_MSFontService,sans-serif"
       font-weight="400"
       font-size="37"
       transform="matrix(1 0 0 1 2604.73 1337)"
       id="text75">a[1]</text><rect
       x="2728"
       y="1295"
       width="144"
       height="58.0001"
       fill="#FFFFFF"
       id="rect77" /><text
       font-family="Calibri,Calibri_MSFontService,sans-serif"
       font-weight="400"
       font-size="37"
       transform="matrix(1 0 0 1 2770.38 1336)"
       id="text79">a[2]</text><rect
       x="2200"
       y="1220"
       width="144"
       height="58.0001"
       fill="#FFFFFF"
       id="rect81" /><text
       font-family="Calibri,Calibri_MSFontService,sans-serif"
       font-weight="400"
       font-size="37"
       transform="matrix(1 0 0 1 2263.12 1261)"
       id="text83">a  </text><path
       d="M2302 1249.85 2334.28 1249.85 2334.28 1252.15 2302 1252.15ZM2329.7 1237.25 2357.2 1251 2329.7 1264.75Z"
       id="path85" /><rect
       x="2910"
       y="1295"
       width="144"
       height="58.0001"
       fill="#FFFFFF"
       id="rect87" /><text
       font-family="Calibri,Calibri_MSFontService,sans-serif"
       font-weight="400"
       font-size="37"
       transform="matrix(1 0 0 1 2952.06 1336)"
       id="text89">a[3]</text><rect
       x="3084.5"
       y="1214.5"
       width="144"
       height="70.0001"
       stroke="#000000"
       stroke-width="6.875"
       stroke-miterlimit="8"
       fill="#FFFFFF"
       id="rect91" /><text
       font-family="Calibri,Calibri_MSFontService,sans-serif"
       font-weight="400"
       font-size="55"
       transform="matrix(1 0 0 1 3142.19 1267)"
       id="text93">3</text><rect
       x="3083"
       y="1295"
       width="144"
       height="58.0001"
       fill="#FFFFFF"
       id="rect95" /><text
       font-family="Calibri,Calibri_MSFontService,sans-serif"
       font-weight="400"
       font-size="37"
       transform="matrix(1 0 0 1 3125.68 1336)"
       id="text97">a[4]</text><path
       d="M1422.85 1191.16 1422.85 1128.35 1599.49 1128.35 1599.49 1189.08 1597.2 1189.08 1597.2 1129.5 1598.35 1130.65 1424 1130.65 1425.15 1129.5 1425.15 1191.16ZM1437.75 1186.57 1424 1214.07 1410.25 1186.57ZM1612.1 1184.5 1598.35 1212 1584.6 1184.5Z"
       fill="#4472C4"
       id="path99" /><text
       font-family="Calibri,Calibri_MSFontService,sans-serif"
       font-weight="400"
       font-size="46"
       transform="matrix(1 0 0 1 1333.63 1058)"
       id="text101">a[1] &gt; a[0] </text><text
       font-family="Calibri,Calibri_MSFontService,sans-serif"
       font-weight="400"
       font-size="46"
       transform="matrix(1 0 0 1 1535.3 1058)"
       id="text103">је тачно</text><text
       font-family="Calibri,Calibri_MSFontService,sans-serif"
       font-weight="400"
       font-size="46"
       transform="matrix(1 0 0 1 1699.73 1058)"
       id="text105">p</text><text
       font-family="Calibri,Calibri_MSFontService,sans-serif"
       font-weight="400"
       font-size="46"
       transform="matrix(1 0 0 1 1734.1 1058)"
       id="text107">= 4, </text><text
       font-family="Calibri,Calibri_MSFontService,sans-serif"
       font-weight="400"
       font-size="46"
       transform="matrix(1 0 0 1 1812.59 1058)"
       id="text109">a[</text><text
       font-family="Calibri,Calibri_MSFontService,sans-serif"
       font-weight="400"
       font-size="46"
       transform="matrix(1 0 0 1 1848.69 1058)"
       id="text111">0</text><text
       font-family="Calibri, Calibri_MSFontService, sans-serif"
       font-weight="400"
       font-size="46px"
       transform="translate(1872.18,1058)"
       id="text113">] = p = 4, a[1]</text><text
       font-family="Calibri,Calibri_MSFontService,sans-serif"
       font-weight="400"
       font-size="46"
       transform="matrix(1 0 0 1 2127.12 1058)"
       id="text115">= 2</text><text
       font-family="Calibri, Calibri_MSFontService, sans-serif"
       font-weight="400"
       font-size="46px"
       transform="translate(2441.99,1058)"
       id="text117">Након ове ротације низ а има вредности</text></g></svg>
