<svg width="2171" height="377" xmlns="http://www.w3.org/2000/svg" xmlns:xlink="http://www.w3.org/1999/xlink" xml:space="preserve" overflow="hidden"><defs><clipPath id="clip0"><rect x="1164" y="999" width="2171" height="377"/></clipPath></defs><g clip-path="url(#clip0)" transform="translate(-1164 -999)"><rect x="1352.5" y="1222.5" width="144" height="71.0001" stroke="#000000" stroke-width="6.875" stroke-miterlimit="8" fill="#FFFFFF"/><text font-family="Calibri,Calibri_MSFontService,sans-serif" font-weight="400" font-size="55" transform="matrix(1 0 0 1 1409.5 1276)">2</text><rect x="1526.5" y="1220.5" width="144" height="70.9998" stroke="#000000" stroke-width="6.875" stroke-miterlimit="8" fill="#FFFFFF"/><text font-family="Calibri,Calibri_MSFontService,sans-serif" font-weight="400" font-size="55" transform="matrix(1 0 0 1 1583.84 1274)">4</text><rect x="1873.5" y="1220.5" width="144" height="70.9998" stroke="#000000" stroke-width="6.875" stroke-miterlimit="8" fill="#FFFFFF"/><text font-family="Calibri,Calibri_MSFontService,sans-serif" font-weight="400" font-size="55" transform="matrix(1 0 0 1 1931.18 1274)">1</text><rect x="1700.5" y="1220.5" width="144" height="70.9998" stroke="#000000" stroke-width="6.875" stroke-miterlimit="8" fill="#FFFFFF"/><text font-family="Calibri,Calibri_MSFontService,sans-serif" font-weight="400" font-size="55" transform="matrix(1 0 0 1 1757.51 1274)">5</text><rect x="1352" y="1302" width="144" height="56.9998" fill="#FFFFFF"/><text font-family="Calibri,Calibri_MSFontService,sans-serif" font-weight="400" font-size="37" transform="matrix(1 0 0 1 1394.03 1343)">a[0]</text><rect x="1526" y="1303" width="144" height="56.9998" fill="#FFFFFF"/><text font-family="Calibri,Calibri_MSFontService,sans-serif" font-weight="400" font-size="37" transform="matrix(1 0 0 1 1568.38 1344)">a[1]</text><rect x="1692" y="1302" width="144" height="56.9998" fill="#FFFFFF"/><text font-family="Calibri,Calibri_MSFontService,sans-serif" font-weight="400" font-size="37" transform="matrix(1 0 0 1 1734.03 1343)">a[2]</text><rect x="1164" y="1227" width="144" height="57.0001" fill="#FFFFFF"/><text font-family="Calibri,Calibri_MSFontService,sans-serif" font-weight="400" font-size="37" transform="matrix(1 0 0 1 1226.77 1268)">a  </text><path d="M1266 1255.85 1298.28 1255.85 1298.28 1258.15 1266 1258.15ZM1293.7 1243.25 1321.2 1257 1293.7 1270.75Z"/><rect x="1873" y="1302" width="144" height="56.9998" fill="#FFFFFF"/><text font-family="Calibri,Calibri_MSFontService,sans-serif" font-weight="400" font-size="37" transform="matrix(1 0 0 1 1915.71 1343)">a[3]</text><rect x="2048.5" y="1220.5" width="144" height="70.9998" stroke="#000000" stroke-width="6.875" stroke-miterlimit="8" fill="#FFFFFF"/><text font-family="Calibri,Calibri_MSFontService,sans-serif" font-weight="400" font-size="55" transform="matrix(1 0 0 1 2105.84 1274)">3</text><rect x="2047" y="1302" width="144" height="56.9998" fill="#FFFFFF"/><text font-family="Calibri,Calibri_MSFontService,sans-serif" font-weight="400" font-size="37" transform="matrix(1 0 0 1 2089.33 1343)">a[4]</text><rect x="2388.5" y="1216.5" width="144" height="70.0001" stroke="#000000" stroke-width="6.875" stroke-miterlimit="8" fill="#FFFFFF"/><text font-family="Calibri,Calibri_MSFontService,sans-serif" font-weight="400" font-size="55" transform="matrix(1 0 0 1 2445.85 1269)">4</text><rect x="2562.5" y="1214.5" width="144" height="70.0001" stroke="#000000" stroke-width="6.875" stroke-miterlimit="8" fill="#FFFFFF"/><text font-family="Calibri,Calibri_MSFontService,sans-serif" font-weight="400" font-size="55" transform="matrix(1 0 0 1 2620.19 1267)">2</text><rect x="2910.5" y="1214.5" width="144" height="70.0001" stroke="#000000" stroke-width="6.875" stroke-miterlimit="8" fill="#FFFFFF"/><text font-family="Calibri,Calibri_MSFontService,sans-serif" font-weight="400" font-size="55" transform="matrix(1 0 0 1 2967.53 1267)">1</text><rect x="2736.5" y="1214.5" width="144" height="70.0001" stroke="#000000" stroke-width="6.875" stroke-miterlimit="8" fill="#FFFFFF"/><text font-family="Calibri,Calibri_MSFontService,sans-serif" font-weight="400" font-size="55" transform="matrix(1 0 0 1 2793.86 1267)">5</text><rect x="2388" y="1295" width="144" height="58.0001" fill="#FFFFFF"/><text font-family="Calibri,Calibri_MSFontService,sans-serif" font-weight="400" font-size="37" transform="matrix(1 0 0 1 2430.38 1336)">a[0]</text><rect x="2562" y="1296" width="144" height="58.0001" fill="#FFFFFF"/><text font-family="Calibri,Calibri_MSFontService,sans-serif" font-weight="400" font-size="37" transform="matrix(1 0 0 1 2604.73 1337)">a[1]</text><rect x="2728" y="1295" width="144" height="58.0001" fill="#FFFFFF"/><text font-family="Calibri,Calibri_MSFontService,sans-serif" font-weight="400" font-size="37" transform="matrix(1 0 0 1 2770.38 1336)">a[2]</text><rect x="2200" y="1220" width="144" height="58.0001" fill="#FFFFFF"/><text font-family="Calibri,Calibri_MSFontService,sans-serif" font-weight="400" font-size="37" transform="matrix(1 0 0 1 2263.12 1261)">a  </text><path d="M2302 1249.85 2334.28 1249.85 2334.28 1252.15 2302 1252.15ZM2329.7 1237.25 2357.2 1251 2329.7 1264.75Z"/><rect x="2910" y="1295" width="144" height="58.0001" fill="#FFFFFF"/><text font-family="Calibri,Calibri_MSFontService,sans-serif" font-weight="400" font-size="37" transform="matrix(1 0 0 1 2952.06 1336)">a[3]</text><rect x="3084.5" y="1214.5" width="144" height="70.0001" stroke="#000000" stroke-width="6.875" stroke-miterlimit="8" fill="#FFFFFF"/><text font-family="Calibri,Calibri_MSFontService,sans-serif" font-weight="400" font-size="55" transform="matrix(1 0 0 1 3142.19 1267)">3</text><rect x="3083" y="1295" width="144" height="58.0001" fill="#FFFFFF"/><text font-family="Calibri,Calibri_MSFontService,sans-serif" font-weight="400" font-size="37" transform="matrix(1 0 0 1 3125.68 1336)">a[4]</text><path d="M1422.85 1191.16 1422.85 1128.35 1599.49 1128.35 1599.49 1189.08 1597.2 1189.08 1597.2 1129.5 1598.35 1130.65 1424 1130.65 1425.15 1129.5 1425.15 1191.16ZM1437.75 1186.57 1424 1214.07 1410.25 1186.57ZM1612.1 1184.5 1598.35 1212 1584.6 1184.5Z" fill="#4472C4"/><text font-family="Calibri,Calibri_MSFontService,sans-serif" font-weight="400" font-size="46" transform="matrix(1 0 0 1 1333.63 1058)">a[1] &gt; a[0] </text><text font-family="Calibri,Calibri_MSFontService,sans-serif" font-weight="400" font-size="46" transform="matrix(1 0 0 1 1535.3 1058)">је тачно</text><text font-family="Calibri,Calibri_MSFontService,sans-serif" font-weight="400" font-size="46" transform="matrix(1 0 0 1 1699.73 1058)">p</text><text font-family="Calibri,Calibri_MSFontService,sans-serif" font-weight="400" font-size="46" transform="matrix(1 0 0 1 1734.1 1058)">= 4, </text><text font-family="Calibri,Calibri_MSFontService,sans-serif" font-weight="400" font-size="46" transform="matrix(1 0 0 1 1812.59 1058)">a[</text><text font-family="Calibri,Calibri_MSFontService,sans-serif" font-weight="400" font-size="46" transform="matrix(1 0 0 1 1848.69 1058)">0</text><text font-family="Calibri,Calibri_MSFontService,sans-serif" font-weight="400" font-size="46" transform="matrix(1 0 0 1 1872.18 1058)">] = p = 4, a[0]</text><text font-family="Calibri,Calibri_MSFontService,sans-serif" font-weight="400" font-size="46" transform="matrix(1 0 0 1 2127.12 1058)">= 2</text><text font-family="Calibri,Calibri_MSFontService,sans-serif" font-weight="400" font-size="46" transform="matrix(1 0 0 1 2441.99 1058)">Након ове измене низ а има вредности</text></g></svg>